<svg width="183" height="37" viewBox="0 0 183 37" fill="none" xmlns="http://www.w3.org/2000/svg">
<path d="M0.0340909 1.09091H9.13636L18.75 24.5455H19.1591L28.7727 1.09091H37.875V36H30.7159V13.2784H30.4261L21.392 35.8295H16.517L7.48295 13.1932H7.19318V36H0.0340909V1.09091ZM51.3366 1.09091V36H43.956V1.09091H51.3366ZM76.3466 11.1307C76.2102 9.75568 75.625 8.6875 74.5909 7.92614C73.5568 7.16477 72.1534 6.78409 70.3807 6.78409C69.1761 6.78409 68.1591 6.95454 67.3295 7.29545C66.5 7.625 65.8636 8.08523 65.4205 8.67614C64.9886 9.26705 64.7727 9.9375 64.7727 10.6875C64.75 11.3125 64.8807 11.858 65.1648 12.3239C65.4602 12.7898 65.8636 13.1932 66.375 13.5341C66.8864 13.8636 67.4773 14.1534 68.1477 14.4034C68.8182 14.642 69.5341 14.8466 70.2955 15.017L73.4318 15.767C74.9545 16.108 76.3523 16.5625 77.625 17.1307C78.8977 17.6989 80 18.3977 80.9318 19.2273C81.8636 20.0568 82.5852 21.0341 83.0966 22.1591C83.6193 23.2841 83.8864 24.5739 83.8977 26.0284C83.8864 28.1648 83.3409 30.017 82.2614 31.5852C81.1932 33.142 79.6477 34.3523 77.625 35.2159C75.6136 36.0682 73.1875 36.4943 70.3466 36.4943C67.5284 36.4943 65.0739 36.0625 62.983 35.1989C60.9034 34.3352 59.2784 33.0568 58.108 31.3636C56.9489 29.6591 56.3409 27.5511 56.2841 25.0398H63.4261C63.5057 26.2102 63.8409 27.1875 64.4318 27.9716C65.0341 28.7443 65.8352 29.3295 66.8352 29.7273C67.8466 30.1136 68.9886 30.3068 70.2614 30.3068C71.5114 30.3068 72.5966 30.125 73.517 29.7614C74.4489 29.3977 75.1705 28.892 75.6818 28.2443C76.1932 27.5966 76.4489 26.8523 76.4489 26.0114C76.4489 25.2273 76.2159 24.5682 75.75 24.0341C75.2955 23.5 74.625 23.0455 73.7386 22.6705C72.8636 22.2955 71.7898 21.9545 70.517 21.6477L66.7159 20.6932C63.7727 19.9773 61.4489 18.858 59.7443 17.3352C58.0398 15.8125 57.1932 13.7614 57.2045 11.1818C57.1932 9.06818 57.7557 7.22159 58.892 5.64205C60.0398 4.0625 61.6136 2.82955 63.6136 1.94318C65.6136 1.05682 67.8864 0.613635 70.4318 0.613635C73.0227 0.613635 75.2841 1.05682 77.2159 1.94318C79.1591 2.82955 80.6705 4.0625 81.75 5.64205C82.8295 7.22159 83.3864 9.05114 83.4205 11.1307H76.3466ZM94.0824 36H86.1733L98.2244 1.09091H107.736L119.77 36H111.861L103.116 9.06818H102.844L94.0824 36ZM93.5881 22.2784H112.27V28.0398H93.5881V22.2784ZM118.376 7.17614V1.09091H147.047V7.17614H136.359V36H129.064V7.17614H118.376ZM182.254 18.5455C182.254 22.3523 181.533 25.5909 180.089 28.2614C178.658 30.9318 176.703 32.9716 174.226 34.3807C171.76 35.7784 168.987 36.4773 165.908 36.4773C162.805 36.4773 160.021 35.7727 157.555 34.3636C155.089 32.9545 153.141 30.9148 151.709 28.2443C150.277 25.5739 149.561 22.3409 149.561 18.5455C149.561 14.7386 150.277 11.5 151.709 8.82955C153.141 6.15909 155.089 4.125 157.555 2.72727C160.021 1.31818 162.805 0.613635 165.908 0.613635C168.987 0.613635 171.76 1.31818 174.226 2.72727C176.703 4.125 178.658 6.15909 180.089 8.82955C181.533 11.5 182.254 14.7386 182.254 18.5455ZM174.771 18.5455C174.771 16.0795 174.402 14 173.663 12.3068C172.936 10.6136 171.908 9.32955 170.578 8.45455C169.249 7.57955 167.692 7.14205 165.908 7.14205C164.124 7.14205 162.567 7.57955 161.237 8.45455C159.908 9.32955 158.874 10.6136 158.135 12.3068C157.408 14 157.044 16.0795 157.044 18.5455C157.044 21.0114 157.408 23.0909 158.135 24.7841C158.874 26.4773 159.908 27.7614 161.237 28.6364C162.567 29.5114 164.124 29.9489 165.908 29.9489C167.692 29.9489 169.249 29.5114 170.578 28.6364C171.908 27.7614 172.936 26.4773 173.663 24.7841C174.402 23.0909 174.771 21.0114 174.771 18.5455Z" fill="#EBC9C9"/>
</svg>
